<svg width="24" height="24" viewBox="0 0 24 24" fill="none" xmlns="http://www.w3.org/2000/svg">
<path d="M9.15254 11.603C9.94754 11.603 10.5915 10.724 10.5915 9.64099C10.5915 8.55799 9.94754 7.67899 9.15254 7.67899C8.35754 7.67899 7.71354 8.55799 7.71354 9.64099C7.71354 10.724 8.35754 11.603 9.15254 11.603ZM5.94854 12.965C5.92254 12.658 5.81754 18.183 12.0115 18.516C18.0775 18.266 18.0775 12.965 18.0775 12.965C11.9995 14.381 5.94854 12.965 5.94854 12.965ZM17.3115 14.073C17.3115 14.073 16.6425 16.032 12.2605 16.032C8.75554 16.032 6.87254 14.868 6.65354 14.073C6.65354 14.073 12.5655 15.128 17.3115 14.073ZM11.8035 1.01099C5.60854 1.01099 0.977539 6.03299 0.977539 12.228C0.977539 18.423 5.80354 22.989 11.9985 22.989C18.1935 22.989 23.0195 18.423 23.0195 12.228C23.0205 6.03299 17.9985 1.01099 11.8035 1.01099ZM11.9995 21.354C6.72654 21.354 2.61854 17.468 2.61854 12.195C2.61854 6.92199 6.56054 2.64699 11.8335 2.64699C17.1065 2.64699 21.3815 6.92199 21.3815 12.195C21.3805 17.467 17.2725 21.354 11.9995 21.354ZM15.1075 11.603C15.9025 11.603 16.5465 10.724 16.5465 9.64099C16.5465 8.55799 15.9025 7.67899 15.1075 7.67899C14.3125 7.67899 13.6685 8.55799 13.6685 9.64099C13.6685 10.724 14.3125 11.603 15.1075 11.603Z" fill="#353232"/>
</svg>
