<svg width="128" height="128" viewBox="0 0 128 128" fill="none" xmlns="http://www.w3.org/2000/svg">
<path opacity="0.5" d="M64.0002 122.667C96.4007 122.667 122.667 96.4007 122.667 64.0002C122.667 31.5995 96.4007 5.3335 64.0002 5.3335C31.5995 5.3335 5.3335 31.5995 5.3335 64.0002C5.3335 73.3847 7.53712 82.2551 11.4551 90.1212C12.4963 92.2119 12.8429 94.6012 12.2393 96.8572L8.74502 109.916C7.22816 115.586 12.4147 120.772 18.0838 119.255L31.1432 115.761C33.3993 115.158 35.7886 115.504 37.879 116.545C45.7452 120.463 54.6156 122.667 64.0002 122.667Z" fill="#6a5bc2"/>
<path d="M58.1333 64.0024C58.1333 67.2424 60.76 69.8691 64 69.8691C67.24 69.8691 69.8666 67.2424 69.8666 64.0024C69.8666 60.7624 67.24 58.1357 64 58.1357C60.76 58.1357 58.1333 60.7624 58.1333 64.0024Z" fill="#6a5bc2"/>
<path d="M34.667 64.0024C34.667 67.2424 37.2936 69.8691 40.5337 69.8691C43.7737 69.8691 46.4003 67.2424 46.4003 64.0024C46.4003 60.7624 43.7737 58.1357 40.5337 58.1357C37.2936 58.1357 34.667 60.7624 34.667 64.0024Z" fill="#6a5bc2"/>
<path d="M81.6001 64.0024C81.6001 67.2424 84.2268 69.8691 87.4668 69.8691C90.7068 69.8691 93.3334 67.2424 93.3334 64.0024C93.3334 60.7624 90.7068 58.1357 87.4668 58.1357C84.2268 58.1357 81.6001 60.7624 81.6001 64.0024Z" fill="#6a5bc2"/>
</svg>
