<svg width="45" height="45" viewBox="0 0 55 55" fill="none" xmlns="http://www.w3.org/2000/svg">
<circle cx="27.5" cy="27.5" r="27.5" fill="#6A5BC2"/>
<path d="M28.1616 28.0337L20.636 35.5593M21.4092 36.7591L23.8799 41.7164C25.233 44.4315 25.9096 45.789 26.7802 46.1709C27.5364 46.5027 28.4044 46.4593 29.1238 46.054C29.952 45.5871 30.4899 44.1689 31.5659 41.3325L38.4632 23.1485C39.5133 20.3799 40.0385 18.9957 39.7367 18.1039C39.4746 17.329 38.8661 16.7206 38.0912 16.4585C37.1996 16.1568 35.8152 16.6818 33.0467 17.732L14.8313 24.6413C12.0035 25.7139 10.5896 26.2502 10.1227 27.0771C9.71717 27.7953 9.67274 28.6622 10.0027 29.4181C10.3827 30.2884 11.7344 30.9664 14.4378 32.3224L19.5333 34.8783C19.9976 35.1112 20.2298 35.2277 20.4308 35.3831C20.6093 35.5211 20.7692 35.6814 20.9067 35.8602C21.0616 36.0617 21.1774 36.2941 21.4092 36.7591Z" stroke="#fff" stroke-width="3" stroke-linecap="round" stroke-linejoin="round"/>
</svg>
